<?xml version="1.0" encoding="UTF-8" standalone="no"?>
<!-- Created with Inkscape (http://www.inkscape.org/) -->

<svg
   width="210mm"
   height="297mm"
   viewBox="0 0 210 297"
   version="1.1"
   id="svg5"
   inkscape:version="1.2.2 (b0a84865, 2022-12-01)"
   sodipodi:docname="transformada_fourier_1.svg"
   xmlns:inkscape="http://www.inkscape.org/namespaces/inkscape"
   xmlns:sodipodi="http://sodipodi.sourceforge.net/DTD/sodipodi-0.dtd"
   xmlns="http://www.w3.org/2000/svg"
   xmlns:svg="http://www.w3.org/2000/svg">
  <sodipodi:namedview
     id="namedview7"
     pagecolor="#ffffff"
     bordercolor="#999999"
     borderopacity="1"
     inkscape:showpageshadow="0"
     inkscape:pageopacity="0"
     inkscape:pagecheckerboard="0"
     inkscape:deskcolor="#d1d1d1"
     inkscape:document-units="mm"
     showgrid="false"
     inkscape:zoom="1"
     inkscape:cx="315.5"
     inkscape:cy="481.5"
     inkscape:window-width="1390"
     inkscape:window-height="963"
     inkscape:window-x="27"
     inkscape:window-y="258"
     inkscape:window-maximized="0"
     inkscape:current-layer="layer1" />
  <defs
     id="defs2">
    <rect
       x="524.67008"
       y="380.04126"
       width="37.604621"
       height="24.939803"
       id="rect1184" />
    <rect
       x="524.67008"
       y="380.04126"
       width="172.22414"
       height="62.564233"
       id="rect1242" />
    <rect
       x="524.67008"
       y="380.04126"
       width="70.066981"
       height="37.143698"
       id="rect1591" />
  </defs>
  <g
     inkscape:label="Layer 1"
     inkscape:groupmode="layer"
     id="layer1">
    <path
       style="fill:#000000;stroke:#000000;stroke-width:0.300001;stroke-linecap:round;stroke-linejoin:round;stroke-dasharray:none;stroke-opacity:1"
       d="M 51.645494,156.1946 H 154.03708"
       id="path245" />
    <path
       style="fill:#000000;stroke:#000000;stroke-width:0.3;stroke-linecap:round;stroke-linejoin:round;stroke-dasharray:none;stroke-opacity:1"
       d="m 102.84136,124.94548 v 47.10904"
       id="path909" />
    <path
       style="fill:#000000;stroke:#000000;stroke-width:0.0999991;stroke-linecap:round;stroke-linejoin:round;stroke-dasharray:none;stroke-opacity:1"
       id="path1032"
       d="m 90.232131,156.1946 c 0.0014,-0.93922 3.54e-4,-1.61924 0.0064,-2.55842 0.01807,-1.32924 0.02883,-2.65982 0.08505,-3.98592 0.0445,-1.04976 0.09032,-1.70232 0.155497,-2.75141 0.121489,-1.66748 0.257776,-3.3327 0.451228,-4.9767 0.10263,-0.87219 0.13472,-1.05403 0.256298,-1.88801 0.09708,-0.62436 0.2153,-1.23715 0.364738,-1.82401 0.0397,-0.1559 0.122379,-0.4577 0.181272,-0.61104 0.02241,-0.0584 0.05097,-0.10745 0.07644,-0.16117 0.02787,-0.0184 0.05407,-0.0551 0.08361,-0.0553 0.06701,-5.3e-4 0.401419,0.28389 0.247678,0.204 -0.07993,-0.0415 -0.197843,-0.34012 -0.226526,-0.19355 -0.03106,0.1587 0.135774,0.22239 0.196514,0.34692 0.0793,0.16258 0.148471,0.34171 0.222705,0.51257 0.440738,1.11917 0.75881,2.38076 1.083295,3.62632 0.0329,0.10579 0.05927,0.21983 0.09871,0.31738 0.133998,0.33151 0.548051,0.57981 0.651212,0.6162 0.05787,0.0204 0.100141,-0.11914 0.143313,-0.19458 0.103505,-0.18087 0.223419,-0.50247 0.305537,-0.7078 0.142406,-0.38756 0.286615,-0.77347 0.444961,-1.13879 0.07887,-0.18197 0.120963,-0.31963 0.244471,-0.3902 0.04637,-0.0265 0.09661,-0.0147 0.144921,-0.0221 0.254396,0.058 0.467892,0.34574 0.707052,0.49193 0.183608,0.11224 0.199485,0.0895 0.392715,0.10827 0.07364,-0.0218 0.148863,-0.0295 0.220935,-0.0655 0.366205,-0.18278 0.705292,-0.6341 0.984031,-1.10076 0.08802,-0.14736 0.170776,-0.30552 0.256171,-0.45827 0.676798,-1.306 1.224847,-2.81793 1.791106,-4.29184 0.459825,-1.1845 0.923375,-2.36811 1.454495,-3.44391 0.0547,-0.0853 0.13137,-0.25179 0.21783,-0.25012 0.0281,5.3e-4 0.10334,0.0823 0.0771,0.0637 -0.113,-0.0798 -0.22129,-0.31002 -0.33734,-0.24766 -0.0711,0.0382 0.068,0.24803 0.0934,0.37876 0.0318,0.16352 0.0517,0.33434 0.0776,0.50151 0.17812,1.63579 0.1965,3.31457 0.22158,4.97815 0.0212,2.11796 0.0226,4.23626 0.0363,6.35437 0.013,1.88918 0.094,3.77422 0.17816,5.65607 0.0867,1.4047 0.15997,2.81283 0.26655,4.21284 0.0609,0.77556 0.12034,1.55439 0.22018,2.31628 0.0984,0.60697 0.21165,0.58173 0.59639,0.96297 0.0216,0.0214 0.0486,0.0141 0.0729,0.0131 0.0303,-0.001 0.0601,-0.0135 0.0901,-0.0203 0.10469,-0.0531 0.15599,-0.0692 0.25767,-0.16887 0.0687,-0.0673 0.13388,-0.1465 0.19924,-0.22457 0.26875,-0.32102 0.52041,-0.68387 0.77306,-1.04732 0.22616,-0.32765 0.44738,-0.66794 0.67873,-0.98281 0.0735,-0.10001 0.17907,-0.25709 0.27459,-0.29923 0.0333,-0.0147 0.0683,0.001 0.10255,0.002 0.0299,0.03 0.1202,0.1181 0.0898,0.0899 -0.10918,-0.10118 -0.20674,-0.26462 -0.32611,-0.30893 -0.0522,-0.0194 0.0726,0.14723 0.10497,0.22684 0.12541,0.30812 0.21809,0.65728 0.31332,0.99952 0.26881,1.02739 0.50578,2.08247 0.76544,3.11792 0.07,0.26794 0.13735,0.53851 0.21018,0.80381 0.20546,0.74852 0.42331,1.48475 0.63226,2.22983 0.29179,1.04041 0.5795,2.08453 0.87438,3.12187 0.3375,1.17283 0.70524,2.31673 1.13637,3.37614 0.1233,0.29754 0.25871,0.57772 0.40703,0.83176 0.0652,0.11171 0.15406,0.25224 0.23161,0.33771 0.17491,0.19279 0.35334,0.37407 0.53001,0.5611 0.0859,0.0563 0.12036,0.0981 0.21313,0.0849 0.23564,-0.0335 0.46747,-0.52451 0.62772,-0.80769 0.45937,-0.87478 0.80802,-1.92115 1.17059,-2.9371 0.16546,-0.46916 0.33347,-0.93553 0.50754,-1.39359 0.0433,-0.1138 0.13773,-0.37702 0.20703,-0.47573 0.024,-0.0341 0.0552,-0.0448 0.0828,-0.0672 0.26162,0.18709 -0.15718,-0.22294 -0.24874,-0.28176 -0.0475,-0.0305 0.0766,0.12242 0.11181,0.1897 0.12117,0.2314 0.22453,0.49764 0.33059,0.75307 0.0802,0.19663 0.16229,0.39075 0.24821,0.57874 7.6e-4,0.002 0.0974,0.2113 0.10731,0.22299 0.15899,0.18706 0.32392,0.35557 0.48589,0.53335 0.0226,-0.008 0.0469,-0.006 0.0678,-0.0236 0.0287,-0.0237 0.0539,-0.0609 0.0784,-0.0974 0.18458,-0.27435 0.2787,-0.66931 0.37999,-1.05693 0.25293,-1.33734 0.44049,-2.71489 0.63678,-4.08455 0.12688,-0.96523 0.25175,-1.93164 0.40329,-2.88443 0.04,-0.25182 0.12996,-0.99104 0.1688,-1.24347 l -0.49768,0.0315 v 0 c -0.0304,0.26113 -0.0602,0.52236 -0.0903,0.78361 -0.11733,0.97815 -0.23049,1.9582 -0.35733,2.93219 -0.14673,1.17258 -0.29269,2.36116 -0.53025,3.48304 -0.0397,0.18753 -0.088,0.36819 -0.132,0.55229 -0.0912,0.30668 -0.17635,0.6077 -0.31747,0.8452 -0.0378,0.0637 -0.10189,0.15788 -0.15742,0.1743 -0.0178,0.005 -0.0356,-0.0109 -0.0534,-0.0163 0.1284,0.14579 0.25394,0.30094 0.38522,0.43735 0.0215,0.0223 -0.0369,-0.061 -0.0544,-0.0936 -0.0228,-0.0427 -0.0444,-0.0876 -0.0662,-0.13211 -0.0532,-0.10855 -0.11698,-0.24309 -0.16644,-0.35532 -0.0336,-0.0762 -0.0658,-0.15444 -0.0987,-0.23166 -0.0223,-0.0533 -0.19379,-0.46259 -0.2145,-0.51102 -0.02,-0.0469 -0.17099,-0.40417 -0.20787,-0.44937 -0.17129,-0.21003 -0.34783,-0.40739 -0.5321,-0.57397 -0.0299,-0.0271 -0.0665,0.002 -0.0998,0.003 -0.0272,0.0361 -0.0586,0.0631 -0.0817,0.10824 -0.0547,0.10708 -0.14537,0.41497 -0.17883,0.519 -0.1546,0.48079 -0.31561,0.95391 -0.47951,1.42363 -0.35861,1.01529 -0.72467,2.03673 -1.19174,2.88915 -0.17734,0.28784 -0.38734,0.70606 -0.64345,0.69534 -0.0814,-0.003 -0.12327,-0.0488 -0.19786,-0.10338 0.10308,0.11783 0.20548,0.23782 0.30924,0.3535 0.0407,0.0453 -0.0814,-0.0906 -0.11982,-0.14233 -0.21179,-0.28485 -0.38792,-0.65519 -0.5561,-1.02529 -0.46197,-1.07629 -0.8625,-2.24071 -1.22929,-3.43912 -0.59715,-1.99526 -1.17535,-4.01425 -1.66924,-6.10896 -0.23812,-1.02717 -0.46074,-2.06732 -0.71619,-3.07984 -0.0898,-0.3411 -0.17781,-0.68429 -0.291,-1.00099 -0.0291,-0.0813 -0.0509,-0.17833 -0.0928,-0.23661 -0.42048,-0.58535 -0.34669,-0.52645 -0.62517,-0.67327 -0.0353,0.0124 -0.0726,0.012 -0.10592,0.0372 -0.0898,0.0678 -0.18316,0.23603 -0.25274,0.34638 -0.21536,0.34152 -0.42835,0.68864 -0.65134,1.01268 -0.25722,0.35862 -0.51256,0.72084 -0.79654,1.0031 -0.11641,0.11571 -0.23607,0.2174 -0.36407,0.27713 -0.0386,0.018 -0.0786,0.0237 -0.11796,0.0355 -0.0291,-0.002 -0.0584,0.004 -0.0873,-0.005 -0.0226,-0.007 -0.0844,-0.0629 -0.0653,-0.0391 0.1234,0.15356 0.25345,0.28728 0.38019,0.43092 -0.0166,-0.0266 -0.0356,-0.0487 -0.0498,-0.0798 -0.0469,-0.10201 -0.0592,-0.18879 -0.0876,-0.31442 -0.13112,-0.76272 -0.19127,-1.55888 -0.26594,-2.34611 -0.12959,-1.40747 -0.22933,-2.82449 -0.30742,-4.24532 -0.0676,-1.22077 -0.13483,-2.44227 -0.17039,-3.66821 -0.01,-0.33918 -0.0154,-0.67876 -0.0224,-1.01817 -0.007,-0.3321 -0.0133,-0.66424 -0.0199,-0.99636 -0.0119,-0.97902 -0.0165,-1.1634 -0.0191,-2.15244 -0.003,-1.39851 0.0129,-2.79714 -0.01,-4.19543 -0.01,-0.93796 -0.009,-1.04258 -0.0247,-1.97072 -0.0167,-0.98806 -0.026,-1.9815 -0.1212,-2.95675 -0.004,-0.0389 -0.0864,-0.80307 -0.12778,-0.87989 -0.1491,-0.27674 -0.33159,-0.4838 -0.50977,-0.69065 -0.0262,-0.0303 -0.0623,-0.0232 -0.0919,-0.008 -0.0816,0.0423 -0.1478,0.21907 -0.19766,0.32105 -0.46894,1.16498 -0.918984,2.35579 -1.370731,3.54451 -0.567752,1.47358 -1.138353,2.95572 -1.838161,4.22132 -0.08707,0.14852 -0.171365,0.30304 -0.261216,0.44557 -0.282946,0.44884 -0.629248,0.88163 -0.997325,1.02901 -0.07236,0.029 -0.147073,0.0293 -0.22061,0.0439 -0.19496,-0.0346 -0.201033,-0.0134 -0.385192,-0.13241 -0.24432,-0.15788 -0.46737,-0.44543 -0.73271,-0.46968 -0.05217,0.018 -0.107476,0.0159 -0.156502,0.054 -0.123772,0.0962 -0.160628,0.24338 -0.235686,0.43952 -0.145855,0.38115 -0.284783,0.77164 -0.43417,1.14802 -0.09595,0.21735 -0.199031,0.48008 -0.321335,0.65427 -0.04187,0.0596 -0.163007,0.0519 -0.138885,0.13972 0.05854,0.21312 0.20294,0.29047 0.299826,0.44623 0.09043,0.14538 -0.474835,-0.62239 -0.243912,-0.49022 -0.358705,-1.22688 -0.675534,-2.5013 -1.099601,-3.65608 -0.09604,-0.24493 -0.239087,-0.65963 -0.379773,-0.85247 -0.184227,-0.25252 -0.381068,-0.47106 -0.576421,-0.6919 -0.08144,-0.0921 -0.190342,-0.20155 -0.29307,-0.16234 -0.03409,0.013 -0.06016,0.0658 -0.09025,0.0987 -0.02312,0.0623 -0.04942,0.12088 -0.06936,0.18699 -0.04666,0.1547 -0.122707,0.507 -0.152417,0.65331 -0.125315,0.6171 -0.227592,1.25033 -0.310618,1.89218 -0.105404,0.84881 -0.133538,1.04136 -0.224673,1.92446 -0.171537,1.6622 -0.297133,3.33897 -0.415759,5.01697 -0.08797,1.31989 -0.182444,2.64077 -0.251521,3.96482 -0.03945,0.75628 -0.04778,1.14535 -0.06692,1.88359 -0.007,0.26685 -0.01308,0.53377 -0.01962,0.80065 -0.02036,0.90369 -0.01642,2.01627 -0.09167,2.91126 z"
       sodipodi:nodetypes="ccscscssccsssccssscsscscsscccssscccccccsccsscssccssccssccsscsccsccsscccccccccccsccscsccssccccssccsccccscccccccccscsscccccccccscccscssscccsscscsscsssccssscsscscsscccc" />
    <text
       xml:space="preserve"
       transform="matrix(0.26458333,0,0,0.26458333,6.7383541,50.230631)"
       id="text1182"
       style="font-size:18.6667px;line-height:16px;font-family:'Courier New';-inkscape-font-specification:'Courier New';white-space:pre;shape-inside:url(#rect1184);display:inline;fill:#000000;stroke:#000000;stroke-width:0.377953;stroke-linecap:round;stroke-linejoin:round;stroke-dasharray:none;stroke-opacity:1"><tspan
         x="524.66992"
         y="392.98354"
         id="tspan3546">$t$</tspan></text>
    <text
       xml:space="preserve"
       transform="matrix(0.26458333,0,0,0.26458333,-46.316746,24.679902)"
       id="text1240"
       style="font-size:18.6667px;line-height:16px;font-family:'Courier New';-inkscape-font-specification:'Courier New';white-space:pre;shape-inside:url(#rect1242);display:inline;fill:#000000;stroke:#000000;stroke-width:0.377953;stroke-linecap:round;stroke-linejoin:round;stroke-dasharray:none;stroke-opacity:1"><tspan
         x="524.66992"
         y="392.98354"
         id="tspan3548">$\fx[x]{t}$</tspan></text>
  </g>
</svg>
